<svg>
	<symbol id="icon-play" viewBox="0 0 24 24" xmlns="http://www.w3.org/2000/svg">
		<path d="M8 6.82v10.36c0 .79.87 1.27 1.54.84l8.14-5.18a1 1 0 000-1.69L9.54 5.98A.998.998 0 008 6.82z" />
	</symbol>
	<symbol id="icon-pouse" viewBox="0 0 24 24" xmlns="http://www.w3.org/2000/svg">
		<path d="M8 19c1.1 0 2-.9 2-2V7c0-1.1-.9-2-2-2s-2 .9-2 2v10c0 1.1.9 2 2 2zm6-12v10c0 1.1.9 2 2 2s2-.9 2-2V7c0-1.1-.9-2-2-2s-2 .9-2 2z" />
	</symbol>
	<symbol id="icon-stop" viewBox="0 0 24 24" xmlns="http://www.w3.org/2000/svg">
		<path d="M8 6h8c1.1 0 2 .9 2 2v8c0 1.1-.9 2-2 2H8c-1.1 0-2-.9-2-2V8c0-1.1.9-2 2-2z" />
	</symbol>
	<symbol id="icon-loop" viewBox="0 0 24 24" xmlns="http://www.w3.org/2000/svg">
		<path d="M12 5V2.21c0-.45-.54-.67-.85-.35l-3.8 3.79c-.2.2-.2.51 0 .71l3.79 3.79c.32.31.86.09.86-.36V7c3.73 0 6.68 3.42 5.86 7.29-.47 2.27-2.31 4.1-4.57 4.57-3.57.75-6.75-1.7-7.23-5.01a1 1 0 00-.98-.85c-.6 0-1.08.53-1 1.13.62 4.39 4.8 7.64 9.53 6.72 3.12-.61 5.63-3.12 6.24-6.24C20.84 9.48 16.94 5 12 5z" />
	</symbol>
	<symbol id="icon-github" viewBox="0 0 24 24" xmlns="http://www.w3.org/2000/svg">
		<path d="M12 0C5.374 0 0 5.373 0 12c0 5.302 3.438 9.8 8.207 11.387.599.111.793-.261.793-.577v-2.234c-3.338.726-4.033-1.416-4.033-1.416-.546-1.387-1.333-1.756-1.333-1.756-1.089-.745.083-.729.083-.729 1.205.084 1.839 1.237 1.839 1.237 1.07 1.834 2.807 1.304 3.492.997.107-.775.418-1.305.762-1.604-2.665-.305-5.467-1.334-5.467-5.931 0-1.311.469-2.381 1.236-3.221-.124-.303-.535-1.524.117-3.176 0 0 1.008-.322 3.301 1.23A11.509 11.509 0 0112 5.803c1.02.005 2.047.138 3.006.404 2.291-1.552 3.297-1.23 3.297-1.23.653 1.653.242 2.874.118 3.176.77.84 1.235 1.911 1.235 3.221 0 4.609-2.807 5.624-5.479 5.921.43.372.823 1.102.823 2.222v3.293c0 .319.192.694.801.576C20.566 21.797 24 17.3 24 12c0-6.627-5.373-12-12-12z" />
	</symbol>
	<symbol id="icon-info" viewBox="0 0 24 24" xmlns="http://www.w3.org/2000/svg">
		<path d="M0 0h24v24H0z" fill="none" />
		<path d="M12 2C6.48 2 2 6.48 2 12s4.48 10 10 10 10-4.48 10-10S17.52 2 12 2zm1 15h-2v-6h2v6zm0-8h-2V7h2v2z" />
	</symbol>
	<symbol id="icon-countdown" viewBox="0 0 24 24" xmlns="http://www.w3.org/2000/svg">
		<path d="M0 0h24v24H0V0z" fill="none" />
		<path d="M15.07 1.01h-6v2h6v-2zm-4 13h2v-6h-2v6zm8.03-6.62l1.42-1.42c-.43-.51-.9-.99-1.41-1.41l-1.42 1.42A8.962 8.962 0 0012.07 4c-4.97 0-9 4.03-9 9s4.02 9 9 9 9-4.03 9-9c0-2.11-.74-4.06-1.97-5.61zm-7.03 12.62c-3.87 0-7-3.13-7-7s3.13-7 7-7 7 3.13 7 7-3.13 7-7 7z" />
	</symbol>
	<symbol id="icon-reset" viewBox="0 0 24 24" xmlns="http://www.w3.org/2000/svg">
		<path d="M0 0h24v24H0V0z" fill="none" />
		<path d="M6 13c0-1.65.67-3.15 1.76-4.24L6.34 7.34A8.014 8.014 0 004 13c0 4.08 3.05 7.44 7 7.93v-2.02c-2.83-.48-5-2.94-5-5.91zm14 0c0-4.42-3.58-8-8-8-.06 0-.12.01-.18.01l1.09-1.09L11.5 2.5 8 6l3.5 3.5 1.41-1.41-1.08-1.08c.06 0 .12-.01.17-.01 3.31 0 6 2.69 6 6 0 2.97-2.17 5.43-5 5.91v2.02c3.95-.49 7-3.85 7-7.93z" />
	</symbol>
</svg>