<svg>
	<symbol id="icon-play" viewBox="0 0 24 24" xmlns="http://www.w3.org/2000/svg">
		<path d="M0 0h24v24H0V0z" fill="none" />
		<path d="M8 5v14l11-7L8 5z" />
	</symbol>
	<symbol id="icon-pouse" viewBox="0 0 24 24" xmlns="http://www.w3.org/2000/svg">
		<path d="M0 0h24v24H0V0z" fill="none" />
		<path d="M6 19h4V5H6v14zm8-14v14h4V5h-4z" />
	</symbol>
	<symbol id="icon-stop" viewBox="0 0 24 24" xmlns="http://www.w3.org/2000/svg">
		<path d="M0 0h24v24H0V0z" fill="none" />
		<path d="M6 6h12v12H6V6z" />
	</symbol>
	<symbol id="icon-loop" viewBox="0 0 24 24" xmlns="http://www.w3.org/2000/svg">
		<path d="M13.5 2C7.879 2 3.289 6.443 3.025 12H0l5 6.625L10 12H7.025c.257-3.351 3.06-6 6.475-6 3.584 0 6.5 2.916 6.5 6.5S17.084 19 13.5 19a6.479 6.479 0 01-4.728-2.053l-2.427 3.216A10.449 10.449 0 0013.5 23C19.29 23 24 18.29 24 12.5S19.29 2 13.5 2z" />
	</symbol>
	<symbol id="icon-github" viewBox="0 0 24 24" xmlns="http://www.w3.org/2000/svg">
		<path d="M0 0v24h24V0H0zm14.534 19.59c-.406.078-.534-.171-.534-.384v-2.195c0-.747-.262-1.233-.55-1.481 1.782-.198 3.654-.875 3.654-3.947 0-.874-.311-1.588-.824-2.147.083-.202.357-1.016-.079-2.117 0 0-.671-.215-2.198.82A7.603 7.603 0 0012 7.868a7.643 7.643 0 00-2.003.269c-1.528-1.035-2.2-.82-2.2-.82-.434 1.102-.16 1.915-.077 2.118a3.092 3.092 0 00-.824 2.147c0 3.064 1.867 3.751 3.645 3.954-.229.2-.436.552-.508 1.07-.457.204-1.614.557-2.328-.666 0 0-.423-.768-1.227-.825 0 0-.78-.01-.055.487 0 0 .525.246.889 1.17 0 0 .463 1.428 2.688.944v1.489c0 .211-.129.459-.528.385A8 8 0 0112 4a8 8 0 012.534 15.59z" />
	</symbol>
	<symbol id="icon-info" viewBox="0 0 24 24" xmlns="http://www.w3.org/2000/svg">
		<path d="M0 0h24v24H0V0z" fill="none" />
		<path d="M12 21.35l-1.45-1.32C5.4 15.36 2 12.28 2 8.5 2 5.42 4.42 3 7.5 3c1.74 0 3.41.81 4.5 2.09C13.09 3.81 14.76 3 16.5 3 19.58 3 22 5.42 22 8.5c0 3.78-3.4 6.86-8.55 11.54L12 21.35z" />
	</symbol>
	<symbol id="icon-countdown" viewBox="0 0 24 24" xmlns="http://www.w3.org/2000/svg">
		<path d="M0 0h24v24H0V0z" fill="none" />
		<path d="M15.07 1.01h-6v2h6v-2zm-4 13h2v-6h-2v6zm8.03-6.62l1.42-1.42c-.43-.51-.9-.99-1.41-1.41l-1.42 1.42A8.962 8.962 0 0012.07 4c-4.97 0-9 4.03-9 9s4.02 9 9 9 9-4.03 9-9c0-2.11-.74-4.06-1.97-5.61zm-7.03 12.62c-3.87 0-7-3.13-7-7s3.13-7 7-7 7 3.13 7 7-3.13 7-7 7z" />
	</symbol>
	<symbol id="icon-reset" viewBox="0 0 24 24" xmlns="http://www.w3.org/2000/svg">
		<path d="M0 0h24v24H0V0z" fill="none" />
		<path d="M5 13h14v-2H5v2zm-2 4h14v-2H3v2zM7 7v2h14V7H7z" />
	</symbol>
	<symbol id="icon-close" viewBox="0 0 24 24" xmlns="http://www.w3.org/2000/svg">
		<path d="M0 0h24v24H0V0z" fill="none" />
		<path d="M19 6.41L17.59 5 12 10.59 6.41 5 5 6.41 10.59 12 5 17.59 6.41 19 12 13.41 17.59 19 19 17.59 13.41 12 19 6.41z" />
	</symbol>
	<symbol id="icon-be" viewBox="0 0 24 24" xmlns="http://www.w3.org/2000/svg">
		<path d="M18.003 12.333h-3.018c.289-1.977 2.902-1.715 3.018 0zM8.261 13H6v2.01h2.228c2.036 0 1.911-2.01.033-2.01zm-.08-4H6v2h2.389c1.673 0 1.938-2-.208-2zM24 0v24H0V0h24zM14 8h5V7h-5v1zm-3.552 3.618c1.907-.974 1.837-4.55-1.813-4.604H4v9.978h4.311c4.522 0 4.445-4.534 2.137-5.374zm9.487.602c-.274-1.763-1.529-2.95-3.583-2.95-2.095 0-3.352 1.34-3.352 3.947C13 15.848 14.368 17 16.417 17c2.048 0 3.106-1.135 3.4-2h-2.112c-.737.855-2.893.521-2.767-1.353h5.059c.01-.634-.011-1.089-.062-1.427z" />
	</symbol>
	<symbol id="icon-facebook" viewBox="0 0 24 24" xmlns="http://www.w3.org/2000/svg">
		<path d="M0 0v24h24V0H0zm16 7h-1.923C13.461 7 13 7.252 13 7.889V9h3l-.239 3H13v8h-3v-8H8V9h2V7.077C10 5.055 11.064 4 13.461 4H16v3z" />
	</symbol>
</svg>